<?xml version="1.0" encoding="utf-8"?>
<svg width="512px" height="512px" viewBox="0 0 512 512" version="1.1" xmlns:xlink="http://www.w3.org/1999/xlink" xmlns="http://www.w3.org/2000/svg">
  <defs>
    <path d="M0 0L304 0L304 304L0 304L0 0Z" id="path_1" />
    <rect width="512" height="512" id="artboard_1" />
    <clipPath id="clip_1">
      <use xlink:href="#artboard_1" clip-rule="evenodd" />
    </clipPath>
    <clipPath id="mask_1">
      <use xlink:href="#path_1" />
    </clipPath>
  </defs>
  <g id="Artboard" clip-path="url(#clip_1)">
    <path d="M0 256C0 114.615 114.615 0 256 0C397.385 0 512 114.615 512 256C512 397.385 397.385 512 256 512C114.615 512 0 397.385 0 256Z" id="Ellipse" fill="#FF6666" fill-rule="evenodd" stroke="none" />
    <g id="1f44b" transform="translate(104 104)">
      <path d="M0 0L304 0L304 304L0 304L0 0Z" id="Background" fill="none" fill-rule="evenodd" stroke="none" />
      <g clip-path="url(#mask_1)">
        <path d="M8.98906 57.43C16.9268 51.882 28.8926 52.946 36.0197 58.8317L27.8455 46.9504C21.2673 37.5686 23.6233 27.4184 33.0135 20.8317C42.4037 14.2704 69.0122 31.9109 69.0122 31.9109C62.3748 22.4362 63.6162 10.4282 73.0908 3.78241C82.5655 -2.83803 95.6375 -0.549588 102.275 8.94197L190.266 133.244L179.052 241.966L85.4619 207.834L3.8295 86.7997C-2.86695 77.266 -0.553168 64.118 8.98906 57.43L8.98906 57.43Z" transform="translate(32.059418 19.811386)" id="Shape" fill="#EF9645" fill-rule="evenodd" stroke="none" />
        <path d="M3.19674 133.282C3.19674 133.282 -6.36237 119.348 7.5794 109.798C21.5043 100.247 31.055 114.172 31.055 114.172L75.3967 178.839C76.9252 176.289 78.5972 173.773 80.4634 171.29L18.9203 81.5509C18.9203 81.5509 9.36963 67.626 23.303 58.0754C37.2279 48.5247 46.7785 62.4496 46.7785 62.4496L104.665 146.869C106.819 145.112 109.023 143.347 111.294 141.616L44.1861 43.7367C44.1861 43.7367 34.6354 29.8118 48.5687 20.2611C62.4936 10.7105 72.0443 24.6354 72.0443 24.6354L139.152 122.498C141.618 120.986 144.059 119.678 146.507 118.293L83.7821 26.8225C83.7821 26.8225 74.2314 12.8976 88.1563 3.34692C102.081 -6.20374 111.632 7.72114 111.632 7.72114L177.955 104.444L188.037 119.154C146.254 147.814 142.277 201.732 166.149 236.549C170.92 243.515 177.887 238.744 177.887 238.744C149.235 196.953 157.983 149.993 199.775 121.341L187.455 59.6798C187.455 59.6798 182.852 43.4327 199.091 38.822C215.338 34.2198 219.949 50.4669 219.949 50.4669L234.178 92.7229C239.819 109.477 245.822 126.171 253.769 141.962C276.206 186.549 262.804 241.962 220.498 270.985C174.349 302.626 111.26 290.863 79.6105 244.723L3.19674 133.282L3.19674 133.282Z" transform="translate(19.561035 13.111328)" id="Shape" fill="#FFDC5D" fill-rule="evenodd" stroke="none" />
        <g id="Group" transform="translate(0 0.35473633)">
          <path d="M84.7991 76.3547C51.0213 76.3547 16.8889 42.2222 16.8889 8.44444C16.8889 3.77467 13.4689 0 8.79911 0C4.12933 0 0 3.77467 0 8.44444C0 59.1111 34.1324 93.2436 84.7991 93.2436C89.4689 93.2436 93.2435 89.1142 93.2435 84.4445C93.2435 79.7747 89.4689 76.3547 84.7991 76.3547L84.7991 76.3547Z" transform="translate(16.53415 193.8675)" id="Shape" fill="#5DADEC" fill-rule="evenodd" stroke="none" />
          <path d="M59.1111 270.222C33.7778 270.222 16.8889 253.333 16.8889 228C16.8889 223.33 13.1142 219.556 8.44444 219.556C3.77467 219.556 0 223.33 0 228C0 261.778 25.3333 287.111 59.1111 287.111C63.7809 287.111 67.5556 283.336 67.5556 278.667C67.5556 273.997 63.7809 270.222 59.1111 270.222L59.1111 270.222ZM202.667 0C198.005 0 194.222 3.78311 194.222 8.44444C194.222 13.1058 198.005 16.8889 202.667 16.8889C236.444 16.8889 270.222 47.196 270.222 84.4445C270.222 89.1058 274.005 92.8889 278.667 92.8889C283.328 92.8889 287.111 89.1058 287.111 84.4445C287.111 37.8818 253.333 0 202.667 0L202.667 0Z" transform="translate(0 16.534164)" id="Shape" fill="#5DADEC" fill-rule="evenodd" stroke="none" />
          <path d="M8.44444 0C3.78311 0 0 3.42844 0 8.08978C0 12.7511 3.78311 16.8889 8.44444 16.8889C33.7778 16.8889 50.312 35.6778 50.312 58.7564C50.312 63.4178 54.4413 67.2009 59.1111 67.2009C63.7809 67.2009 67.2009 63.4178 67.2009 58.7564C67.2009 26.3551 42.2222 0 8.44444 0L8.44444 0Z" transform="translate(236.44446 0)" id="Shape" fill="#5DADEC" fill-rule="evenodd" stroke="none" />
        </g>
      </g>
    </g>
  </g>
</svg>